<svg xmlns="http://www.w3.org/2000/svg" width="36" height="36" viewBox="0 0 36 36"><path d="M38.242,30.85h0L27.321,19.928,38.242,9.007h0a1.128,1.128,0,0,0,0-1.591L33.083,2.257a1.128,1.128,0,0,0-1.591,0h0L20.571,13.178,9.65,2.257h0a1.128,1.128,0,0,0-1.591,0L2.9,7.416a1.128,1.128,0,0,0,0,1.591h0L13.821,19.928,2.9,30.849h0a1.127,1.127,0,0,0,0,1.591L8.059,37.6a1.128,1.128,0,0,0,1.591,0h0L20.571,26.678,31.492,37.6h0a1.127,1.127,0,0,0,1.591,0l5.159-5.159a1.127,1.127,0,0,0,0-1.591Z" transform="translate(-2.571 -1.928)" fill="#fff"/></svg>